:FULLY-SPECIFIED
:FORCE-ALL-JOINTS-BE-3DOF
:DEGREES
340
root 8.19227 16.0729 -20.4361 11.048 23.8353 4.23595
lfemur -8.89317 15.9082 -10.1524
ltibia 40.1872 0 0
lfoot 6.34697 28.2621 0
ltoes -28.6997 0 0
rfemur -48.0542 -14.5952 10.1067
rtibia 55.3693 0 0
rfoot 2.52778 -18.2515 0
rtoes 2.30392 0 0
lowerback -0.91024 -1.81558 -1.59241
upperback 1.76257 -2.38978 -0.0672953
thorax 2.38318 -1.21948 0.7528
lowerneck -5.6102 -8.66313 -0.572265
upperneck -2.11436 -11.5301 6.58765
head 0.727043 -5.70651 1.85574
lclavicle -1.37516e-14 3.23736e-15 0
lhumerus -48.2935 -34.5626 109.703
lradius 57.3385 0 0
lwrist 20.0809 0 0
lhand 6.10047 12.1102 0
lfingers 7.12502 0 0
lthumb 31.417 39.4124 0
rclavicle -1.37516e-14 3.23736e-15 0
rhumerus -22.1375 18.9494 -73.5224
rradius 84.7574 0 0
rwrist 2.56875 0 0
rhand 4.33576 -9.96035 0
rfingers 7.12502 0 0
rthumb 29.5392 -755.742 0
341
root 8.12863 16.1055 -20.2554 10.8023 22.1599 3.62555
lfemur -8.24303 14.6329 -9.4103
ltibia 40.6002 0 0
lfoot 7.87363 28.7527 0
ltoes -26.9735 0 0
rfemur -47.9048 -15.1994 11.9396
rtibia 55.0269 0 0
rfoot 1.5905 -17.2494 0
rtoes -0.14969 0 0
lowerback -1.10491 -1.72496 -1.35126
upperback 1.70204 -2.27459 0.0541583
thorax 2.42265 -1.15893 0.741048
lowerneck -5.81582 -8.38633 -0.589384
upperneck -1.76779 -11.1801 6.49039
head 0.853699 -5.52114 1.82263
lclavicle -7.56799e-15 3.4078e-16 0
lhumerus -48.2399 -33.5089 109.392
lradius 57.0692 0 0
lwrist 20.3037 0 0
lhand 5.50684 11.8557 0
lfingers 7.12502 0 0
lthumb 30.8512 39.2667 0
rclavicle -7.56799e-15 3.4078e-16 0
rhumerus -23.6737 18.2804 -75.5192
rradius 84.6093 0 0
rwrist 2.49407 0 0
rhand -1.73826 -11.5184 0
rfingers 7.12502 0 0
rthumb 23.7489 -758.326 0
342
root 8.06498 16.1381 -20.0747 10.5567 20.4846 3.01514
lfemur -7.59289 13.3576 -8.6682
ltibia 41.0132 0 0
lfoot 9.40029 29.2432 0
ltoes -25.2474 0 0
rfemur -47.7555 -15.8037 13.7724
rtibia 54.6845 0 0
rfoot 0.65322 -16.2472 0
rtoes -2.6033 0 0
lowerback -1.29957 -1.63435 -1.1101
upperback 1.64151 -2.1594 0.175612
thorax 2.46212 -1.09839 0.729296
lowerneck -6.02143 -8.10954 -0.606504
upperneck -1.42121 -10.8301 6.39314
head 0.980356 -5.33577 1.78951
lclavicle -1.38436e-15 -2.5558e-15 0
lhumerus -48.1864 -32.4552 109.082
lradius 56.7999 0 0
lwrist 20.5265 0 0
lhand 4.9132 11.6013 0
lfingers 7.12502 0 0
lthumb 30.2855 39.121 0
rclavicle -1.38436e-15 -2.5558e-15 0
rhumerus -25.2098 17.6114 -77.5161
rradius 84.4612 0 0
rwrist 2.41938 0 0
rhand -7.81227 -13.0764 0
rfingers 7.12502 0 0
rthumb 17.9586 -760.909 0
343
root 8.00134 16.1706 -19.8941 10.3111 18.8093 2.40474
lfemur -6.94274 12.0824 -7.9261
ltibia 41.4263 0 0
lfoot 10.9269 29.7337 0
ltoes -23.5213 0 0
rfemur -47.6061 -16.408 15.6053
rtibia 54.3421 0 0
rfoot -0.28406 -15.245 0
rtoes -5.05691 0 0
lowerback -1.49423 -1.54374 -0.868946
upperback 1.58099 -2.04421 0.297065
thorax 2.5016 -1.03784 0.717543
lowerneck -6.22704 -7.83275 -0.623624
upperneck -1.07463 -10.4801 6.29589
head 1.10701 -5.1504 1.75639
lclavicle 4.79927e-15 -5.45238e-15 0
lhumerus -48.1329 -31.4016 108.772
lradius 56.5306 0 0
lwrist 20.7493 0 0
lhand 4.31957 11.3469 0
lfingers 7.12502 0 0
lthumb 29.7197 38.9754 0
rclavicle 4.79927e-15 -5.45238e-15 0
rhumerus -26.746 16.9423 -79.513
rradius 84.3132 0 0
rwrist 2.34469 0 0
rhand -13.8863 -14.6345 0
rfingers 7.12502 0 0
rthumb 12.1684 -763.493 0
344
root 7.93769 16.2032 -19.7134 10.0655 17.134 1.79433
lfemur -6.2926 10.8071 -7.184
ltibia 41.8393 0 0
lfoot 12.4536 30.2242 0
ltoes -21.7952 0 0
rfemur -47.4568 -17.0123 17.4382
rtibia 53.9997 0 0
rfoot -1.22134 -14.2428 0
rtoes -7.51052 0 0
lowerback -1.6889 -1.45313 -0.62779
upperback 1.52046 -1.92902 0.418519
thorax 2.54107 -0.977288 0.705791
lowerneck -6.43265 -7.55596 -0.640744
upperneck -0.728057 -10.1301 6.19864
head 1.23367 -4.96503 1.72327
lclavicle 1.09829e-14 -8.34896e-15 0
lhumerus -48.0794 -30.3479 108.462
lradius 56.2613 0 0
lwrist 20.9721 0 0
lhand 3.72593 11.0925 0
lfingers 7.12502 0 0
lthumb 29.154 38.8297 0
rclavicle 1.09829e-14 -8.34896e-15 0
rhumerus -28.2821 16.2733 -81.5099
rradius 84.1651 0 0
rwrist 2.27 0 0
rhand -19.9603 -16.1925 0
rfingers 7.12502 0 0
rthumb 6.37809 -766.076 0
345
root 7.85829 16.2273 -19.5495 9.69017 15.6649 1.39742
lfemur -6.38202 10.4874 -6.5658
ltibia 43.6674 0 0
lfoot 12.5433 28.1337 0
ltoes -15.7811 0 0
rfemur -46.3975 -17.3141 18.4652
rtibia 53.3808 0 0
rfoot -2.61893 -12.8092 0
rtoes -6.45554 0 0
lowerback -1.43976 -1.37162 -0.568503
upperback 1.58008 -1.82388 0.526568
thorax 2.46148 -0.924826 0.791134
lowerneck -6.51169 -7.31087 -0.628825
upperneck -0.470013 -9.81245 6.02198
head 1.31011 -4.80366 1.67171
lclavicle 1.1881e-14 -8.43415e-15 0
lhumerus -47.898 -29.7965 108.173
lradius 56.1664 0 0
lwrist 20.5188 0 0
lhand 3.02903 10.8784 0
lfingers 7.12502 0 0
lthumb 28.4872 38.7181 0
rclavicle 1.1881e-14 -8.43415e-15 0
rhumerus -29.3724 15.4398 -82.7373
rradius 83.5627 0 0
rwrist 2.90195 0 0
rhand -24.079 -20.3996 0
rfingers 7.12502 0 0
rthumb 2.40568 -770.133 0
346
root 7.77889 16.2514 -19.3856 9.31485 14.1958 1.00051
lfemur -6.47145 10.1676 -5.9476
ltibia 45.4954 0 0
lfoot 12.633 26.0431 0
ltoes -9.76697 0 0
rfemur -45.3383 -17.6159 19.4922
rtibia 52.762 0 0
rfoot -4.01653 -11.3756 0
rtoes -5.40056 0 0
lowerback -1.19061 -1.29011 -0.509216
upperback 1.63971 -1.71875 0.634616
thorax 2.38188 -0.872364 0.876476
lowerneck -6.59072 -7.06579 -0.616906
upperneck -0.211969 -9.49481 5.84533
head 1.38654 -4.64228 1.62016
lclavicle 1.2779e-14 -8.51935e-15 0
lhumerus -47.7166 -29.2452 107.885
lradius 56.0715 0 0
lwrist 20.0656 0 0
lhand 2.33213 10.6642 0
lfingers 7.12502 0 0
lthumb 27.8203 38.6065 0
rclavicle 1.2779e-14 -8.51935e-15 0
rhumerus -30.4627 14.6064 -83.9646
rradius 82.9604 0 0
rwrist 3.5339 0 0
rhand -28.1978 -24.6066 0
rfingers 7.12502 0 0
rthumb -1.56674 -774.191 0
347
root 7.69949 16.2755 -19.2217 8.93952 12.7267 0.603603
lfemur -6.56087 9.84785 -5.3294
ltibia 47.3235 0 0
lfoot 12.7227 23.9526 0
ltoes -3.75286 0 0
rfemur -44.279 -17.9177 20.5192
rtibia 52.1431 0 0
rfoot -5.41412 -9.94203 0
rtoes -4.34559 0 0
lowerback -0.941466 -1.2086 -0.449929
upperback 1.69933 -1.61361 0.742665
thorax 2.30229 -0.819902 0.961819
lowerneck -6.66976 -6.8207 -0.604987
upperneck 0.0460746 -9.17716 5.66867
head 1.46298 -4.48091 1.5686
lclavicle 1.36771e-14 -8.60454e-15 0
lhumerus -47.5352 -28.6938 107.596
lradius 55.9766 0 0
lwrist 19.6123 0 0
lhand 1.63523 10.4501 0
lfingers 7.12502 0 0
lthumb 27.1535 38.4949 0
rclavicle 1.36771e-14 -8.60454e-15 0
rhumerus -31.553 13.7729 -85.192
rradius 82.358 0 0
rwrist 4.16585 0 0
rhand -32.3165 -28.8137 0
rfingers 7.12502 0 0
rthumb -5.53915 -778.248 0
348
root 7.6201 16.2996 -19.0578 8.5642 11.2575 0.206695
lfemur -6.6503 9.52811 -4.71119
ltibia 49.1515 0 0
lfoot 12.8125 21.8621 0
ltoes 2.26126 0 0
rfemur -43.2197 -18.2194 21.5461
rtibia 51.5242 0 0
rfoot -6.81172 -8.50844 0
rtoes -3.29061 0 0
lowerback -0.692321 -1.12709 -0.390643
upperback 1.75896 -1.50847 0.850714
thorax 2.22269 -0.767439 1.04716
lowerneck -6.7488 -6.57562 -0.593069
upperneck 0.304118 -8.85951 5.49201
head 1.53942 -4.31954 1.51704
lclavicle 1.45752e-14 -8.68973e-15 0
lhumerus -47.3539 -28.1425 107.308
lradius 55.8816 0 0
lwrist 19.159 0 0
lhand 0.938336 10.236 0
lfingers 7.12502 0 0
lthumb 26.4867 38.3832 0
rclavicle 1.45752e-14 -8.68973e-15 0
rhumerus -32.6433 12.9394 -86.4193
rradius 81.7556 0 0
rwrist 4.79781 0 0
rhand -36.4353 -33.0208 0
rfingers 7.12502 0 0
rthumb -9.51156 -782.305 0
349
root 7.5407 16.3237 -18.8939 8.18887 9.78842 -0.190214
lfemur -6.73972 9.20836 -4.09299
ltibia 50.9796 0 0
lfoot 12.9022 19.7716 0
ltoes 8.27537 0 0
rfemur -42.1604 -18.5212 22.5731
rtibia 50.9053 0 0
rfoot -8.20931 -7.07485 0
rtoes -2.23563 0 0
lowerback -0.443176 -1.04558 -0.331356
upperback 1.81858 -1.40333 0.958763
thorax 2.1431 -0.714977 1.1325
lowerneck -6.82784 -6.33053 -0.58115
upperneck 0.562162 -8.54186 5.31535
head 1.61586 -4.15817 1.46548
lclavicle 1.54733e-14 -8.77492e-15 0
lhumerus -47.1725 -27.5911 107.019
lradius 55.7867 0 0
lwrist 18.7057 0 0
lhand 0.241437 10.0219 0
lfingers 7.12502 0 0
lthumb 25.8199 38.2716 0
rclavicle 1.54733e-14 -8.77492e-15 0
rhumerus -33.7336 12.1059 -87.6467
rradius 81.1532 0 0
rwrist 5.42976 0 0
rhand -40.554 -37.2279 0
rfingers 7.12502 0 0
rthumb -13.484 -786.362 0
350
root 7.4613 16.3478 -18.73 7.81355 8.31931 -0.587123
lfemur -6.82915 8.88861 -3.47479
ltibia 52.8076 0 0
lfoot 12.9919 17.681 0
ltoes 14.2895 0 0
rfemur -41.1012 -18.823 23.6001
rtibia 50.2865 0 0
rfoot -9.60691 -5.64126 0
rtoes -1.18065 0 0
lowerback -0.194031 -0.964073 -0.272069
upperback 1.87821 -1.2982 1.06681
thorax 2.0635 -0.662515 1.21785
lowerneck -6.90687 -6.08545 -0.569231
upperneck 0.820206 -8.22422 5.1387
head 1.69229 -3.99679 1.41393
lclavicle 1.63713e-14 -8.86012e-15 0
lhumerus -46.9911 -27.0398 106.731
lradius 55.6918 0 0
lwrist 18.2525 0 0
lhand -0.455461 9.80774 0
lfingers 7.12502 0 0
lthumb 25.153 38.16 0
rclavicle 1.63713e-14 -8.86012e-15 0
rhumerus -34.8239 11.2725 -88.874
rradius 80.5509 0 0
rwrist 6.06171 0 0
rhand -44.6728 -41.4349 0
rfingers 7.12502 0 0
rthumb -17.4564 -790.42 0
351
root 7.3819 16.3719 -18.5661 7.43822 6.85019 -0.984032
lfemur -6.91857 8.56886 -2.85659
ltibia 54.6357 0 0
lfoot 13.0816 15.5905 0
ltoes 20.3036 0 0
rfemur -40.0419 -19.1248 24.6271
rtibia 49.6676 0 0
rfoot -11.0045 -4.20767 0
rtoes -0.125676 0 0
lowerback 0.0551134 -0.882563 -0.212782
upperback 1.93783 -1.19306 1.17486
thorax 1.98391 -0.610053 1.30319
lowerneck -6.98591 -5.84036 -0.557312
upperneck 1.07825 -7.90657 4.96204
head 1.76873 -3.83542 1.36237
lclavicle 1.72694e-14 -8.94531e-15 0
lhumerus -46.8097 -26.4884 106.442
lradius 55.5969 0 0
lwrist 17.7992 0 0
lhand -1.15236 9.59361 0
lfingers 7.12502 0 0
lthumb 24.4862 38.0484 0
rclavicle 1.72694e-14 -8.94531e-15 0
rhumerus -35.9142 10.439 -90.1014
rradius 79.9485 0 0
rwrist 6.69366 0 0
rhand -48.7915 -45.642 0
rfingers 7.12502 0 0
rthumb -21.4288 -794.477 0
352
root 7.31508 16.383 -18.4418 7.42353 5.4451 -1.29531
lfemur -8.33529 9.77937 -2.63014
ltibia 56.9675 0 0
lfoot 11.692 12.3604 0
ltoes 19.465 0 0
rfemur -39.268 -18.7001 25.2252
rtibia 49.1618 0 0
rfoot -11.6779 -3.42698 0
rtoes 1.20128 0 0
lowerback 0.369129 -0.727138 -0.11608
upperback 1.94898 -0.983836 1.25123
thorax 1.81419 -0.504473 1.32943
lowerneck -7.06287 -5.62104 -0.465974
upperneck 1.05837 -7.61774 4.84411
head 1.75957 -3.69317 1.3198
lclavicle 1.47988e-14 -6.04874e-15 0
lhumerus -46.5024 -26.032 105.975
lradius 55.8457 0 0
lwrist 17.5281 0 0
lhand -1.77432 9.44476 0
lfingers 7.12502 0 0
lthumb 23.8892 37.9715 0
rclavicle 1.47988e-14 -6.04874e-15 0
rhumerus -36.4291 9.77185 -90.3302
rradius 79.3614 0 0
rwrist 6.11663 0 0
rhand -46.7031 -44.4155 0
rfingers 7.12502 0 0
rthumb -19.417 -793.396 0
